<svg xmlns="http://www.w3.org/2000/svg" width="803.075" height="184.532" viewBox="0 0 803.075 184.532">
  <g id="brainerhubhub-white" transform="translate(-205.925 -503.084)">
    <g id="Group_6" data-name="Group 6" transform="translate(-202.636 155.579)">
      <path id="Path_24" data-name="Path 24" d="M444.193,379.432c-28.98-1-46.629,35.505-27.911,60.344-18.578,24.659-1.293,61.348,27.911,60.343,2.488,17.882,15.308,31.919,30.839,31.919,17.269,0,31.317-17.2,31.317-38.347V385.86c0-16.34-8.4-30.288-20.186-35.8C467.291,341.265,447.42,356.181,444.193,379.432Zm52.943,6.428V436.9h-37.3c-3.191-8.235-15.442-5.933-15.442,2.88s12.258,11.1,15.442,2.879h37.3v42.64H483.554a7.987,7.987,0,0,0-15.441,2.88c0,8.826,12.263,11.1,15.441,2.879h13.582v2.637c0,16.065-9.916,29.133-22.1,29.133-10,0-18.424-8.813-21.143-20.838v-36.6h16.433a8,8,0,1,0,0-5.758H448.129v30.807c-16.226,3.284-30.322-10.412-30.322-27.429a28.879,28.879,0,0,1,11.4-23.232A28.379,28.379,0,0,1,418.5,422.922h11.684v40.142c-8.238,3.189-5.933,15.442,2.879,15.442s11.1-12.26,2.88-15.442V422.922h39.894c3.2,8.236,15.446,5.934,15.446-2.878a7.987,7.987,0,0,0-5.12-7.444V360.731C492.714,365.791,497.136,375.149,497.136,385.86ZM480.4,388.443V412.6a8,8,0,0,0-4.567,4.564h-13.38V409.9c8.253-3.2,5.918-15.442-2.88-15.442S448.464,406.7,456.7,409.9v7.268H417.832c-.441-20.481,18.7-34.062,35.434-26.4-2.618-20.42,11.429-38.316,27.138-33.128Z" transform="translate(0)" fill="#aa2646"/>
      <path id="Path_25" data-name="Path 25" d="M670.973,500.159c30.233.688,45.987-36.358,27.91-60.345a38.532,38.532,0,0,0,7.687-23.231c0-20.573-15.853-37.618-35.6-37.112a43.887,43.887,0,0,0-3.937-13.073c-16.285-33.644-58.22-19.1-58.22,19.5V493.729c0,22.219,15.039,38.347,31.316,38.347C655.606,532.076,668.462,518.245,670.973,500.159Zm-52.944-6.43V442.693h37.3c3.2,8.233,15.445,5.935,15.445-2.88s-12.242-11.127-15.445-2.879h-37.3V394.294h13.583c3.19,8.236,15.442,5.933,15.442-2.879s-12.259-11.1-15.442-2.879H618.029V385.9c0-16.066,9.916-29.134,22.1-29.134,10,0,18.425,8.811,21.144,20.838v36.6H644.845c-3.2-8.237-15.443-5.93-15.443,2.879s12.242,11.131,15.443,2.88h22.191V389.152c16.287-3.3,30.323,10.479,30.323,27.43a28.866,28.866,0,0,1-11.4,23.231,28.361,28.361,0,0,1,10.71,16.853h-11.68V416.526a8,8,0,1,0-5.76,0v40.141h-39.9c-3.192-8.24-15.443-5.929-15.443,2.879A7.985,7.985,0,0,0,629,466.989v51.868C622.452,513.8,618.029,504.442,618.029,493.729Zm16.736-26.739a7.99,7.99,0,0,0,4.563-4.564h13.381v7.269c-8.254,3.2-5.917,15.441,2.879,15.441,8.813,0,11.113-12.252,2.878-15.441v-7.269h38.866c.442,20.493-18.691,34.049-35.434,26.4,2.651,20.65-11.619,38.273-27.134,33.125Z" transform="translate(-95.176 -0.04)" fill="#aa2646"/>
    </g>
    <g id="Group_7" data-name="Group 7" transform="translate(-110)">
      <text id="BrainerHub" transform="translate(536 608)" fill="#fff" font-size="96" font-family="BwNistaGeometricDEMO-Black, Bw Nista Geometric DEMO" font-weight="800"><tspan x="0" y="0">BrainerHub</tspan></text>
      <text id="convert_idea_into_business" data-name="convert idea into business" transform="translate(540 660)" fill="#fff" font-size="49" font-family="FuturaBT-Medium, Futura Md BT" font-weight="500"><tspan x="0" y="0">convert idea into business</tspan></text>
    </g>
  </g>
</svg>
